<?xml version="1.0" encoding="utf-8"?>
<!-- Generator: Adobe Illustrator 23.0.3, SVG Export Plug-In . SVG Version: 6.00 Build 0)  -->
<svg version="1.1" id="Capa_1" xmlns="http://www.w3.org/2000/svg" xmlns:xlink="http://www.w3.org/1999/xlink" x="0px" y="0px"
	 viewBox="0 0 1154.5 145.1" style="enable-background:new 0 0 1154.5 145.1;" xml:space="preserve">
<style type="text/css">
	.st0{fill:#EDEDED;}
	.st1{fill:#3ADDBE;}
</style>
<g>
	<path class="st0" d="M17.6,1.8H146l-4.6,37.3H60.3l-1.9,15.6h79.3l-4.5,37.1H53.8l-1.9,16H133l-4.6,37.3H0L17.6,1.8z"/>
	<path class="st0" d="M246.5,0l-29.9,65.5h-3l5.3-12.7c0.6-1.4,0.8-2.8,0.6-4.2L209.8,0h-53l26.7,99h16.1c-2.5,3.4-5.2,5.5-8.1,6.3
		c-3,0.9-17.6,1.3-48.1,1.3l-4.7,37.6c37.6,0,60-1.2,71.4-3.6c11.4-2.4,24.1-16.3,38-41.6l51.6-99H246.5z"/>
	<path class="st1" d="M384.1,144.4h-41.8l13.3-108.1h-35.8L324.2,0h113.3l-4.5,36.3h-47.4l-0.3,2.7h2.5c2.7,0,4.8,0.8,6.3,2.5
		c1.5,1.7,2,3.9,1.7,6.6L384.1,144.4z"/>
	<path class="st1" d="M444.4,0H486l-17.7,144.4h-41.6L444.4,0z"/>
	<path class="st1" d="M538.5,145.1c-19.7,0-34-4.6-42.7-13.8c-8.7-9.2-13.1-22.5-13.1-39.8c0-5.8,0.4-12.2,1.3-19.1
		c3.4-27.5,11.4-46.4,23.9-56.8C520.4,5.2,536.5,0,556.2,0c19.9,0,33.9,4.4,42,13.1c8.1,8.7,12.1,20.7,12.1,35.8
		c0,4.8-0.3,9.8-1,15.3l-42-0.7c0.8-6.8,1.2-12.3,1.2-16.6c0-6.6-1.3-10.6-3.8-11.9c-2.5-1.3-6.8-2-12.9-2c-6.2,0-11.3,1.2-15.5,3.5
		c-4.2,2.3-7.6,14.4-10.2,36.1c-1.2,9.3-1.7,16.8-1.7,22.5c0,7.7,1.4,12.6,4.2,14.4c2.8,1.9,7.4,2.8,13.6,2.8c6,0,10.8-0.9,14.4-2.6
		c3.6-1.7,6.5-11,8.5-27.9l42.2-0.6c-2.8,22.4-10,38.7-21.6,48.9C574.1,140.1,558.4,145.1,538.5,145.1z"/>
	<path class="st1" d="M651.8,55l2.2,1.3L697.8,0h46.4l-49.1,64.7l31.3,79.7h-46.4l-18.8-43l-9.6,12.2l-3.7,30.7h-41.5L624.2,0h41.5
		l-3.5,28.2c-0.3,2.7-1,5.5-2,8.4c-1,2.9-2.2,5.5-3.5,7.8L651.8,55z"/>
	<path class="st1" d="M915.2,144.4h-41.8l13.3-108.1h-35.8L855.3,0h113.3l-4.5,36.3h-47.4l-0.3,2.7h2.5c2.7,0,4.8,0.8,6.3,2.5
		c1.5,1.7,2,3.9,1.7,6.6L915.2,144.4z"/>
	<path class="st1" d="M1016.4,145.1c-21.9,0-36.9-2.8-44.9-8.5s-12-15.5-12-29.4c0-4,0.3-8.4,0.9-13.3h41.7
		c-0.4,2.8-0.6,5.2-0.6,7.3c0,6.2,1.7,9.6,5.1,10.3c3.4,0.7,7.8,1.1,13.4,1.1c5.5,0,10.3-0.2,14.3-0.6c4-0.4,6.4-3.5,7.1-9.3
		c0.1-0.5,0.1-0.9,0.1-1.4c0-4.2-2.9-6.8-8.5-7.9s-13.5-2.5-23.5-4.3c-18.2-4.2-30-8.7-35.5-13.6c-5.5-4.8-8.2-11.7-8.2-20.6
		c0-2.3,0.2-4.6,0.5-7.1c2.4-19.4,9-32.3,19.8-38.5c10.8-6.2,26.6-9.4,47.3-9.4c20.6,0,35.1,3.1,43.4,9.3
		c8.3,6.2,12.5,16.1,12.5,29.7c0,3.7-0.3,7.6-0.8,11.8h-41.6c0.3-2.5,0.5-4.7,0.5-6.7c0-6.2-1.8-9.7-5.4-10.5
		c-3.6-0.8-8-1.2-13.1-1.2c-5.8,0-10.8,0.2-14.8,0.7c-4,0.5-6.4,3.5-7.1,9.2c-0.1,0.6-0.1,1.2-0.1,1.7c0,4.8,3,7.6,8.9,8.5
		c5.9,0.9,13.7,2.3,23.5,4.3c18.8,4.1,30.9,8.4,36.3,12.8c5.4,4.4,8,10.9,8,19.6c0,2.1-0.2,4.3-0.5,6.8c-2.5,20-8.9,33.3-19.3,39.6
		C1053.5,142,1037.6,145.1,1016.4,145.1z"/>
	<g>
		<polygon class="st1" points="779.4,107.6 737.7,107.6 733.2,144.4 830.7,144.4 835.1,108 779.4,108 		"/>
		<polygon class="st1" points="786,53.7 744.3,53.7 739.9,90.1 781.6,90.1 781.7,90 836.3,90 840.7,53.7 800.4,53.7 		"/>
		<polygon class="st1" points="750.9,0 746.5,36.3 788.2,36.3 800.4,36.3 844,36.3 848.5,0 		"/>
	</g>
	<g>
		<polygon class="st1" points="1142.2,100.4 1154.5,0 1112.9,0 1100.6,100.4 		"/>
		<polygon class="st1" points="1099.2,111.6 1095.2,144.4 1136.8,144.4 1140.8,111.6 		"/>
	</g>
</g>
</svg>
