<?xml version="1.0" encoding="UTF-8"?>
<svg id="Capa_1" xmlns="http://www.w3.org/2000/svg" version="1.1" viewBox="0 0 1301.3 500.94">
  <!-- Generator: Adobe Illustrator 29.5.1, SVG Export Plug-In . SVG Version: 2.1.0 Build 141)  -->
  <defs>
    <style>
      .st0 {
        fill: none;
        stroke: #3addbe;
        stroke-miterlimit: 10;
        stroke-width: 3px;
      }
    </style>
  </defs>
  <path class="st0" d="M1220.14,250.46c0,35.41,23.1,65.42,55.05,75.79,14.58,4.73,24.61,18.09,24.61,33.42v102.2c0,20.74-16.82,37.56-37.56,37.56H39.07c-20.74,0-37.56-16.82-37.56-37.56v-100.86c0-15.75,9.95-29.94,24.92-34.86,31.79-10.46,54.74-40.39,54.74-75.69s-22.95-65.22-54.74-75.68c-14.96-4.92-24.92-19.11-24.92-34.86V39.06C1.51,18.32,18.33,1.5,39.07,1.5h1223.17c20.74,0,37.56,16.82,37.56,37.56v100.86c0,15.75-9.95,29.94-24.92,34.86-31.79,10.46-54.74,40.4-54.74,75.68h0Z"/>
</svg>